<?xml version="1.0" encoding="UTF-8" standalone="no"?>
<!DOCTYPE svg PUBLIC "-//W3C//DTD SVG 1.1//EN" "http://www.w3.org/Graphics/SVG/1.1/DTD/svg11.dtd">
<svg width="100%" height="100%" viewBox="0 0 1315 290" version="1.1" xmlns="http://www.w3.org/2000/svg" xmlns:xlink="http://www.w3.org/1999/xlink" xml:space="preserve" xmlns:serif="http://www.serif.com/" style="fill-rule:evenodd;clip-rule:evenodd;stroke-linejoin:round;stroke-miterlimit:2;">
    <g transform="matrix(1,0,0,1,-583.122,-1609.36)">
        <g transform="matrix(1,0,0,1,-254.012,66.4048)">
            <g transform="matrix(0.750062,0,0,0.75,-12379.2,-508.358)">
                <path d="M19372.3,3016.18L17620.4,3016.18L17620.4,3120.62L18222.9,3120.62C18222.9,3120.62 18797.6,3120.62 18797.6,3120.62C18797.6,3120.62 19372.3,3120.62 19372.3,3120.62L19372.3,3016.18ZM17648.1,3043.96L18195.1,3043.96C18195.1,3043.96 18195.1,3092.85 18195.1,3092.85C18195.1,3092.85 17648.1,3092.85 17648.1,3092.85L17648.1,3043.96ZM18222.9,3043.96L18769.8,3043.96C18769.8,3043.96 18769.8,3092.85 18769.8,3092.85C18769.8,3092.85 18222.9,3092.85 18222.9,3092.85L18222.9,3043.96Z" style="fill:white;"/>
            </g>
            <g transform="matrix(4.16667,0,0,3.6445,-899.784,183.423)">
                <path d="M451.2,385.124C453.409,385.124 455.435,385.717 457.279,386.903C459.123,388.088 460.582,389.741 461.658,391.859C462.733,393.978 463.271,396.377 463.271,399.056L463.271,422.342L458.287,422.342L458.258,400.835C458.258,397.541 457.624,394.972 456.357,393.128C455.089,391.283 453.322,390.361 451.056,390.361C449.52,390.361 448.098,390.882 446.792,391.925C445.486,392.968 444.454,394.39 443.696,396.191C442.937,397.991 442.558,399.978 442.558,402.152L442.558,422.342L437.66,422.342L437.66,400.835C437.66,397.541 437.026,394.972 435.759,393.128C434.491,391.283 432.705,390.361 430.4,390.361C428.864,390.361 427.443,390.882 426.137,391.925C424.831,392.968 423.798,394.39 423.04,396.191C422.281,397.991 421.902,399.978 421.902,402.152L421.902,422.342L416.86,422.342L416.86,385.914L421.902,385.914L421.902,390.921C424.495,387.056 427.702,385.124 431.524,385.124C433.675,385.124 435.48,385.711 436.94,386.886C438.4,388.061 439.6,389.779 440.541,392.041C441.751,389.867 443.287,388.171 445.15,386.952C447.013,385.733 449.03,385.124 451.2,385.124Z" style="fill-rule:nonzero;fill:white;"/>
                <path d="M506.016,385.914L511.144,385.914L511.144,422.342L505.757,422.342L505.757,416.809C504.201,418.873 502.463,420.443 500.542,421.518C498.622,422.594 496.423,423.132 493.945,423.132C490.853,423.132 488.054,422.309 485.547,420.662C483.041,419.015 481.068,416.732 479.627,413.811C478.187,410.913 477.467,407.685 477.467,404.128C477.467,400.549 478.182,397.31 479.613,394.412C481.044,391.514 483.017,389.241 485.533,387.594C488.049,385.947 490.853,385.124 493.945,385.124C498.843,385.124 502.866,387.254 506.016,391.514L506.016,385.914ZM485.936,413.746C488.145,416.315 490.939,417.599 494.32,417.599C496.528,417.599 498.521,417.017 500.297,415.853C502.074,414.69 503.471,413.081 504.489,411.028C505.507,408.975 506.016,406.675 506.016,404.128C506.016,401.581 505.507,399.281 504.489,397.228C503.471,395.175 502.074,393.567 500.297,392.403C498.521,391.239 496.528,390.657 494.32,390.657C492.111,390.657 490.114,391.245 488.328,392.419C486.541,393.594 485.139,395.208 484.121,397.261C483.104,399.314 482.595,401.603 482.595,404.128C482.595,407.949 483.709,411.155 485.936,413.746Z" style="fill-rule:nonzero;fill:white;"/>
                <path d="M543.431,385.124C545.89,385.124 548.118,385.783 550.115,387.1C552.112,388.418 553.682,390.246 554.825,392.584C555.968,394.923 556.539,397.574 556.539,400.538L556.539,422.342L551.527,422.342L551.527,401.889C551.527,398.2 550.787,395.356 549.308,393.358C547.83,391.36 545.707,390.361 542.942,390.361C541.156,390.361 539.528,390.893 538.059,391.958C536.589,393.023 535.432,394.483 534.587,396.339C533.742,398.194 533.32,400.242 533.32,402.481L533.32,422.342L528.278,422.342L528.278,385.914L532.83,385.914L532.83,391.612C534.078,389.483 535.567,387.869 537.295,386.771C539.024,385.673 541.069,385.124 543.431,385.124Z" style="fill-rule:nonzero;fill:white;"/>
                <path d="M590.296,417.039L590.296,422.342L586.666,422.342C584.381,422.342 582.379,421.826 580.66,420.794C578.941,419.762 577.616,418.291 576.684,416.38C575.753,414.47 575.287,412.209 575.287,409.596L575.287,392.139L569.669,392.139L569.669,386.968L575.287,386.968L575.287,378.174L580.3,378.207L580.3,386.968L590.296,386.968L590.296,392.139L580.3,392.139L580.3,409.431C580.3,411.868 580.924,413.746 582.172,415.063C583.42,416.38 585.139,417.039 587.329,417.039L590.296,417.039Z" style="fill-rule:nonzero;fill:white;"/>
                <path d="M604.031,379.624L604.031,373.036L609.476,373.036L609.476,379.624L604.031,379.624ZM604.233,422.342L604.233,385.289L609.274,385.289L609.274,422.342L604.233,422.342Z" style="fill-rule:nonzero;fill:white;"/>
                <path d="M636.491,423.132C634.014,423.132 631.834,422.616 629.952,421.584C628.07,420.552 626.591,419.109 625.515,417.253C624.44,415.398 623.863,413.252 623.787,410.814L628.684,410.814C628.761,412.198 629.145,413.422 629.836,414.487C630.528,415.552 631.459,416.375 632.631,416.957C633.802,417.539 635.147,417.83 636.664,417.83C638.124,417.83 639.42,417.599 640.553,417.138C641.686,416.677 642.57,416.024 643.204,415.178C643.837,414.333 644.154,413.328 644.154,412.165C644.154,410.759 643.751,409.672 642.944,408.904C642.464,408.465 642.013,408.119 641.59,407.866C641.168,407.614 640.62,407.389 639.948,407.191C638.834,406.862 637.48,406.544 635.886,406.236C634.676,406.017 633.591,405.775 632.631,405.512C631.978,405.336 631.421,405.166 630.96,405.001C630.499,404.836 630.009,404.644 629.491,404.425C628.972,404.205 628.554,403.98 628.238,403.749C627.921,403.519 627.465,403.14 626.869,402.613C626.466,402.262 626.139,401.878 625.89,401.46C625.64,401.043 625.362,400.494 625.054,399.814C624.593,398.76 624.363,397.376 624.363,395.664C624.363,393.578 624.867,391.739 625.875,390.147C626.884,388.555 628.295,387.32 630.11,386.441C631.925,385.563 634.014,385.124 636.376,385.124C638.738,385.124 640.813,385.618 642.599,386.606C644.385,387.594 645.782,388.972 646.79,390.74C647.799,392.507 648.332,394.533 648.389,396.816L643.636,396.816C643.54,394.818 642.839,393.221 641.533,392.024C640.227,390.827 638.469,390.229 636.261,390.229C634.84,390.229 633.601,390.443 632.544,390.871C631.488,391.3 630.672,391.909 630.096,392.699C629.52,393.49 629.231,394.412 629.231,395.466C629.231,396.783 629.606,397.761 630.355,398.397C630.816,398.793 631.248,399.105 631.651,399.336C632.055,399.567 632.583,399.77 633.236,399.945C633.966,400.143 634.58,400.297 635.08,400.406C635.579,400.516 636.27,400.648 637.154,400.802C639.823,401.307 641.917,401.834 643.434,402.383C644.951,402.932 646.224,403.848 647.251,405.133C648.279,406.417 648.879,408.256 649.052,410.65C649.09,411.22 649.109,411.638 649.109,411.901C649.109,414.141 648.586,416.111 647.539,417.813C646.493,419.515 645.019,420.827 643.117,421.749C641.216,422.671 639.007,423.132 636.491,423.132Z" style="fill-rule:nonzero;fill:white;"/>
                <path d="M673.82,423.132C671.343,423.132 669.163,422.616 667.281,421.584C665.399,420.552 663.92,419.109 662.844,417.253C661.769,415.398 661.193,413.252 661.116,410.814L666.013,410.814C666.09,412.198 666.474,413.422 667.165,414.487C667.857,415.552 668.788,416.375 669.96,416.957C671.131,417.539 672.476,417.83 673.993,417.83C675.453,417.83 676.749,417.599 677.882,417.138C679.015,416.677 679.899,416.024 680.533,415.178C681.166,414.333 681.483,413.328 681.483,412.165C681.483,410.759 681.08,409.672 680.273,408.904C679.793,408.465 679.342,408.119 678.919,407.866C678.497,407.614 677.95,407.389 677.277,407.191C676.163,406.862 674.809,406.544 673.215,406.236C672.005,406.017 670.92,405.775 669.96,405.512C669.307,405.336 668.75,405.166 668.289,405.001C667.828,404.836 667.338,404.644 666.82,404.425C666.301,404.205 665.884,403.98 665.567,403.749C665.25,403.519 664.794,403.14 664.198,402.613C663.795,402.262 663.468,401.878 663.219,401.46C662.969,401.043 662.691,400.494 662.383,399.814C661.922,398.76 661.692,397.376 661.692,395.664C661.692,393.578 662.196,391.739 663.204,390.147C664.213,388.555 665.624,387.32 667.439,386.441C669.254,385.563 671.343,385.124 673.705,385.124C676.067,385.124 678.142,385.618 679.928,386.606C681.714,387.594 683.111,388.972 684.119,390.74C685.128,392.507 685.661,394.533 685.718,396.816L680.965,396.816C680.869,394.818 680.168,393.221 678.862,392.024C677.556,390.827 675.798,390.229 673.59,390.229C672.169,390.229 670.93,390.443 669.874,390.871C668.817,391.3 668.001,391.909 667.425,392.699C666.849,393.49 666.561,394.412 666.561,395.466C666.561,396.783 666.935,397.761 667.684,398.397C668.145,398.793 668.577,399.105 668.98,399.336C669.384,399.567 669.912,399.77 670.565,399.945C671.295,400.143 671.909,400.297 672.409,400.406C672.908,400.516 673.599,400.648 674.483,400.802C677.152,401.307 679.246,401.834 680.763,402.383C682.28,402.932 683.553,403.848 684.58,405.133C685.608,406.417 686.208,408.256 686.381,410.65C686.419,411.22 686.438,411.638 686.438,411.901C686.438,414.141 685.915,416.111 684.868,417.813C683.822,419.515 682.348,420.827 680.446,421.749C678.545,422.671 676.336,423.132 673.82,423.132Z" style="fill-rule:nonzero;fill:white;"/>
                <path d="M727.109,385.914L732.237,385.914L732.237,422.342L726.85,422.342L726.85,416.809C725.294,418.873 723.556,420.443 721.636,421.518C719.715,422.594 717.516,423.132 715.038,423.132C711.946,423.132 709.147,422.309 706.641,420.662C704.134,419.015 702.161,416.732 700.721,413.811C699.28,410.913 698.56,407.685 698.56,404.128C698.56,400.549 699.275,397.31 700.706,394.412C702.137,391.514 704.11,389.241 706.626,387.594C709.142,385.947 711.946,385.124 715.038,385.124C719.936,385.124 723.96,387.254 727.109,391.514L727.109,385.914ZM707.03,413.746C709.238,416.315 712.033,417.599 715.413,417.599C717.622,417.599 719.614,417.017 721.391,415.853C723.167,414.69 724.565,413.081 725.582,411.028C726.6,408.975 727.109,406.675 727.109,404.128C727.109,401.581 726.6,399.281 725.582,397.228C724.565,395.175 723.167,393.567 721.391,392.403C719.614,391.239 717.622,390.657 715.413,390.657C713.204,390.657 711.207,391.245 709.421,392.419C707.635,393.594 706.233,395.208 705.215,397.261C704.197,399.314 703.688,401.603 703.688,404.128C703.688,407.949 704.802,411.155 707.03,413.746Z" style="fill-rule:nonzero;fill:white;"/>
            </g>
        </g>
    </g>
</svg>
