<?xml version="1.0" encoding="UTF-8" standalone="no"?>
<!DOCTYPE svg PUBLIC "-//W3C//DTD SVG 1.1//EN" "http://www.w3.org/Graphics/SVG/1.1/DTD/svg11.dtd">
<svg width="100%" height="100%" viewBox="0 0 194 246" version="1.1" xmlns="http://www.w3.org/2000/svg" xmlns:xlink="http://www.w3.org/1999/xlink" xml:space="preserve" xmlns:serif="http://www.serif.com/" style="fill-rule:evenodd;clip-rule:evenodd;stroke-linejoin:round;stroke-miterlimit:2;">
    <g transform="matrix(1,0,0,1,-1143.47,-1631.33)">
        <g transform="matrix(1,0,0,1,814.358,44.4378)">
            <g transform="matrix(0.750172,0,0,0.75,-12380.1,-508.358)">
                <path d="M17199.6,3016.18L16941.8,3016.18L16941.8,3120.62L17046.2,3120.62C17046.2,3120.62 17122.9,3120.62 17122.9,3120.62C17122.9,3120.62 17199.6,3120.62 17199.6,3120.62L17199.6,3016.18ZM17018.4,3043.96L17018.4,3092.85L16969.6,3092.85L16969.6,3043.96L17018.4,3043.96ZM17046.2,3043.96L17095.1,3043.96C17095.1,3043.96 17095.1,3092.85 17095.1,3092.85C17095.1,3092.85 17046.2,3092.85 17046.2,3092.85L17046.2,3043.96Z" style="fill:black;"/>
            </g>
            <g transform="matrix(3.47443,0,0,3.6445,-533.18,182.119)">
                <path d="M289.363,385.449C292.012,385.449 294.442,386.042 296.653,387.228C298.864,388.413 300.614,390.066 301.904,392.185C303.194,394.304 303.839,396.702 303.839,399.381L303.839,422.667L297.862,422.667L297.828,401.16C297.828,397.866 297.068,395.297 295.547,393.453C294.027,391.608 291.908,390.686 289.191,390.686C287.348,390.686 285.644,391.208 284.077,392.251C282.511,393.294 281.273,394.715 280.363,396.516C279.454,398.316 278.999,400.303 278.999,402.477L278.999,422.667L273.126,422.667L273.126,401.16C273.126,397.866 272.365,395.297 270.845,393.453C269.325,391.608 267.183,390.686 264.419,390.686C262.577,390.686 260.872,391.208 259.306,392.251C257.74,393.294 256.502,394.715 255.592,396.516C254.682,398.316 254.228,400.303 254.228,402.477L254.228,422.667L248.182,422.667L248.182,386.24L254.228,386.24L254.228,391.246C257.337,387.381 261.183,385.449 265.767,385.449C268.346,385.449 270.511,386.037 272.262,387.211C274.012,388.386 275.452,390.104 276.58,392.366C278.031,390.192 279.874,388.496 282.108,387.277C284.342,386.059 286.761,385.449 289.363,385.449Z" style="fill-rule:nonzero;fill:black;"/>
            </g>
        </g>
    </g>
</svg>
